<svg width="171" height="124" viewBox="0 0 171 124" fill="none" xmlns="http://www.w3.org/2000/svg">
<g clip-path="url(#clip0_161_100)">
<path d="M101.171 114C138.158 114 168.141 84.0166 168.141 47.03H34.1897C34.1897 84.0166 64.1731 114 101.16 114" fill="url(#paint0_linear_161_100)"/>
<path d="M53.1119 69.906C53.1119 63.9232 57.9816 59.0419 63.9759 59.0419C69.9703 59.0419 74.84 63.9116 74.84 69.906C74.84 70.0335 74.8284 70.1611 74.8168 70.3002H77.1241C77.1241 70.1727 77.1473 70.0451 77.1473 69.906C77.1473 62.6478 71.2341 56.7346 63.9759 56.7346C56.7178 56.7346 50.8046 62.6362 50.8046 69.906C50.8046 70.0335 50.8162 70.1611 50.8278 70.3002H53.1351C53.1351 70.1727 53.1119 70.0451 53.1119 69.906Z" fill="black"/>
<path d="M41.1 69.906C41.1 57.2911 51.3612 47.03 63.976 47.03C76.5909 47.03 86.8404 57.2911 86.8404 69.906C86.8404 70.0335 86.8288 70.161 86.8172 70.3002H89.1246C89.1246 70.1726 89.1477 70.0451 89.1477 69.906C89.1477 56.0273 77.8547 44.7227 63.9644 44.7227C50.0742 44.7227 38.7811 56.0157 38.7811 69.906C38.7811 70.0335 38.8043 70.161 38.8043 70.3002H41.1116C41.1116 70.1726 41.0884 70.0451 41.0884 69.906" fill="black"/>
<path d="M29.0881 69.9059C29.0881 50.6706 44.7407 35.018 63.976 35.018C83.2113 35.018 98.8639 50.6706 98.8639 69.9059C98.8639 70.0335 98.8639 70.161 98.8639 70.3001H101.171C101.171 70.1726 101.171 70.0335 101.171 69.9059C101.171 49.3952 84.4867 32.7107 63.976 32.7107C43.4653 32.7107 26.7808 49.3952 26.7808 69.9059C26.7808 70.0335 26.7808 70.161 26.7808 70.3001H29.0881C29.0881 70.1726 29.0881 70.0335 29.0881 69.9059Z" fill="black"/>
<path d="M5.37726 69.906C5.37726 37.5921 31.662 11.3073 63.976 11.3073C96.2899 11.3073 122.563 37.5921 122.563 69.8944C122.563 70.022 122.563 70.1495 122.563 70.2887H124.87C124.87 70.1611 124.87 70.022 124.87 69.8944C124.87 36.3167 97.5537 9 63.976 9C30.3982 9 3.06995 36.3167 3.06995 69.906C3.06995 70.0336 3.06995 70.1611 3.06995 70.3002H5.37726C5.37726 70.1727 5.37726 70.0336 5.37726 69.906Z" fill="black"/>
<path d="M17.0761 69.9061C17.0761 44.0503 38.1086 23.0063 63.9759 23.0063C89.8433 23.0063 110.876 44.0387 110.876 69.9061C110.876 70.0337 110.876 70.1612 110.876 70.3003H113.183C113.183 70.1728 113.183 70.0337 113.183 69.9061C113.183 42.7749 91.1071 20.699 63.9759 20.699C36.8448 20.699 14.7572 42.7634 14.7572 69.9061C14.7572 70.0337 14.7572 70.1612 14.7572 70.3003H17.0645C17.0645 70.1728 17.0645 70.0337 17.0645 69.9061" fill="black"/>
</g>
<defs>
<linearGradient id="paint0_linear_161_100" x1="227.446" y1="-117.47" x2="129.01" y2="140.701" gradientUnits="userSpaceOnUse">
<stop stop-color="#FFCCBD"/>
<stop offset="0.3125" stop-color="#D8B0FF"/>
<stop offset="0.600448" stop-color="#A7CAFF"/>
<stop offset="1" stop-color="#E1FFA3"/>
</linearGradient>
<clipPath id="clip0_161_100">
<rect width="165.071" height="105" fill="white" transform="translate(3.06995 9)"/>
</clipPath>
</defs>
</svg>
