<svg width="124" height="125" viewBox="0 0 124 125" fill="none" xmlns="http://www.w3.org/2000/svg">
<g clip-path="url(#clip0_152_59)">
<g clip-path="url(#clip1_152_59)">
<path d="M35.5598 19.3181L83.3821 64.3744L40.606 109.653L54.0236 109.294L97.3698 63.4138L50.1282 18.9275L35.5598 19.3181Z" fill="url(#paint0_linear_152_59)"/>
<path d="M29.2046 20.2576L-0.333252 51.4529L15.5125 66.2218L3.02381 79.5128L34.2191 109.061L76.2457 64.575L29.2046 20.2576Z" fill="url(#paint1_linear_152_59)"/>
<path d="M64.4432 99.6761L34.1769 71.0145L45.5254 58.9375L31.1049 45.5093L59.7771 15.2324L104.464 57.3223L64.4432 99.6761ZM36.0138 70.9617L64.3798 97.8287L102.606 57.3751L59.8299 17.0693L32.9629 45.4354L47.3729 58.8636L36.0138 70.9511V70.9617Z" fill="#F2F7FF"/>
<path d="M82.9704 99.328L67.0824 99.7608L107.251 57.2486L62.4058 15.0004L79.36 14.5359L123.656 56.2669L82.9598 99.328H82.9704ZM70.1967 98.3673L82.4003 98.0401L121.819 56.3196L78.8532 15.8555L65.5939 16.2144L109.098 57.1959L70.1861 98.3673H70.1967Z" fill="#F2F7FF"/>
</g>
</g>
<defs>
<linearGradient id="paint0_linear_152_59" x1="124.735" y1="-203.923" x2="-74.2942" y2="-26.1218" gradientUnits="userSpaceOnUse">
<stop stop-color="#FFCCBD"/>
<stop offset="0.3125" stop-color="#D8B0FF"/>
<stop offset="0.600448" stop-color="#A7CAFF"/>
<stop offset="1" stop-color="#E1FFA3"/>
</linearGradient>
<linearGradient id="paint1_linear_152_59" x1="110.15" y1="-197.874" x2="-84.4342" y2="22.1512" gradientUnits="userSpaceOnUse">
<stop stop-color="#FFCCBD"/>
<stop offset="0.3125" stop-color="#D8B0FF"/>
<stop offset="0.600448" stop-color="#A7CAFF"/>
<stop offset="1" stop-color="#E1FFA3"/>
</linearGradient>
<clipPath id="clip0_152_59">
<rect width="124" height="124" fill="white" transform="translate(0 0.535889)"/>
</clipPath>
<clipPath id="clip1_152_59">
<rect width="124" height="95.1166" fill="white" transform="translate(-0.333252 14.5359)"/>
</clipPath>
</defs>
</svg>
