<svg width="124" height="124" viewBox="0 0 124 124" fill="none" xmlns="http://www.w3.org/2000/svg">
<g clip-path="url(#clip0_161_93)">
<path d="M85.79 18.75L9.14001 18.92L26.38 36.08L103.03 35.91L85.79 18.75Z" fill="#008397"/>
<path d="M7.17 97.7098L24.4 114.88L24.24 38.2298L7 21.0698L7.17 97.7098Z" fill="#008397"/>
<path d="M27.44 114.87L103.03 38.9399L27.27 39.1099L27.44 114.87Z" fill="#008397"/>
<path d="M97.22 9L26.76 9.1L27.02 80.93L45.56 98.31L116.07 26.41L97.53 9.03L97.22 9ZM96.72 10.81L112.43 25.54L45.75 25.64L30.34 11.19L96.72 10.81ZM46.45 94.72L46.62 27.74L112.58 27.39L46.45 94.72ZM28.75 80.01L28.97 12.45L44.4 26.91L44.6 94.86L28.75 80V80.01Z" fill="black"/>
</g>
<defs>
<clipPath id="clip0_161_93">
<rect width="109.07" height="105.88" fill="white" transform="translate(7 9)"/>
</clipPath>
</defs>
</svg>
