<svg width="171" height="124" viewBox="0 0 171 124" fill="none" xmlns="http://www.w3.org/2000/svg">
<g clip-path="url(#clip0_161_100)">
<path d="M101.171 114C138.158 114 168.141 84.0168 168.141 47.0303H34.1897C34.1897 84.0168 64.1731 114 101.16 114" fill="#008397"/>
<path d="M53.1119 69.9062C53.1119 63.9235 57.9816 59.0422 63.9759 59.0422C69.9703 59.0422 74.84 63.9119 74.84 69.9062C74.84 70.0338 74.8284 70.1613 74.8168 70.3005H77.1241C77.1241 70.1729 77.1473 70.0454 77.1473 69.9062C77.1473 62.6481 71.2341 56.7349 63.9759 56.7349C56.7178 56.7349 50.8046 62.6365 50.8046 69.9062C50.8046 70.0338 50.8162 70.1613 50.8278 70.3005H53.1351C53.1351 70.1729 53.1119 70.0454 53.1119 69.9062Z" fill="black"/>
<path d="M41.1 69.906C41.1 57.2911 51.3612 47.03 63.976 47.03C76.5909 47.03 86.8404 57.2911 86.8404 69.906C86.8404 70.0335 86.8288 70.161 86.8172 70.3002H89.1246C89.1246 70.1726 89.1477 70.0451 89.1477 69.906C89.1477 56.0273 77.8547 44.7227 63.9644 44.7227C50.0742 44.7227 38.7811 56.0157 38.7811 69.906C38.7811 70.0335 38.8043 70.161 38.8043 70.3002H41.1116C41.1116 70.1726 41.0884 70.0451 41.0884 69.906" fill="black"/>
<path d="M29.0881 69.9062C29.0881 50.6708 44.7407 35.0182 63.976 35.0182C83.2113 35.0182 98.8639 50.6708 98.8639 69.9062C98.8639 70.0337 98.8639 70.1612 98.8639 70.3004H101.171C101.171 70.1728 101.171 70.0337 101.171 69.9062C101.171 49.3955 84.4867 32.7109 63.976 32.7109C43.4653 32.7109 26.7808 49.3955 26.7808 69.9062C26.7808 70.0337 26.7808 70.1612 26.7808 70.3004H29.0881C29.0881 70.1728 29.0881 70.0337 29.0881 69.9062Z" fill="black"/>
<path d="M5.37726 69.906C5.37726 37.5921 31.662 11.3073 63.976 11.3073C96.2899 11.3073 122.563 37.5921 122.563 69.8944C122.563 70.022 122.563 70.1495 122.563 70.2887H124.87C124.87 70.1611 124.87 70.022 124.87 69.8944C124.87 36.3167 97.5537 9 63.976 9C30.3982 9 3.06995 36.3167 3.06995 69.906C3.06995 70.0336 3.06995 70.1611 3.06995 70.3002H5.37726C5.37726 70.1727 5.37726 70.0336 5.37726 69.906Z" fill="black"/>
<path d="M17.0761 69.9059C17.0761 44.0501 38.1086 23.006 63.9759 23.006C89.8433 23.006 110.876 44.0385 110.876 69.9059C110.876 70.0334 110.876 70.161 110.876 70.3001H113.183C113.183 70.1726 113.183 70.0334 113.183 69.9059C113.183 42.7747 91.1071 20.6987 63.9759 20.6987C36.8448 20.6987 14.7572 42.7631 14.7572 69.9059C14.7572 70.0334 14.7572 70.161 14.7572 70.3001H17.0645C17.0645 70.1726 17.0645 70.0334 17.0645 69.9059" fill="black"/>
</g>
<defs>
<clipPath id="clip0_161_100">
<rect width="165.071" height="105" fill="white" transform="translate(3.06995 9)"/>
</clipPath>
</defs>
</svg>
