<svg width="124" height="125" viewBox="0 0 124 125" fill="none" xmlns="http://www.w3.org/2000/svg">
<g clip-path="url(#clip0_152_45)">
<path d="M50.3857 30.593C30.6975 30.593 14.6732 46.6173 14.6732 66.3055C14.6732 85.9937 30.6975 102.018 50.3857 102.018C70.0739 102.018 86.0982 86.0026 86.0982 66.3055C86.0982 46.6085 70.0739 30.593 50.3857 30.593ZM50.3857 94.6195C34.7676 94.6195 22.0629 81.9148 22.0629 66.2967C22.0629 50.6785 34.7676 37.9739 50.3857 37.9739C66.0039 37.9739 78.7085 50.6785 78.7085 66.2967C78.7085 81.9148 66.0039 94.6195 50.3857 94.6195Z" fill="url(#paint0_linear_152_45)"/>
<path d="M50.3856 39.7395C35.7386 39.7395 23.8197 51.6584 23.8197 66.2965C23.8197 80.9347 35.7386 92.8624 50.3856 92.8624C65.0325 92.8624 76.9514 80.9435 76.9514 66.2965C76.9514 51.6495 65.0325 39.7395 50.3856 39.7395ZM50.3856 85.4727C39.8175 85.4727 31.2094 76.8734 31.2094 66.2965C31.2094 55.7196 39.8087 47.1204 50.3856 47.1204C60.9625 47.1204 69.5617 55.7196 69.5617 66.2965C69.5617 76.8734 60.9625 85.4727 50.3856 85.4727Z" fill="url(#paint1_linear_152_45)"/>
<path d="M50.3858 48.8865C40.78 48.8865 32.9666 56.7 32.9666 66.3057C32.9666 75.9114 40.78 83.7161 50.3858 83.7161C59.9915 83.7161 67.7962 75.9026 67.7962 66.3057C67.7962 56.7088 59.9827 48.8865 50.3858 48.8865ZM50.3858 76.3264C44.8589 76.3264 40.3563 71.8325 40.3563 66.2969C40.3563 60.7612 44.8589 56.2674 50.3858 56.2674C55.9126 56.2674 60.4153 60.77 60.4153 66.2969C60.4153 71.8237 55.9126 76.3264 50.3858 76.3264Z" fill="url(#paint2_linear_152_45)"/>
<path d="M50.3857 21.6848C25.7887 21.6848 5.7738 41.6997 5.7738 66.2967C5.7738 90.8938 25.7887 110.917 50.3857 110.917C74.9828 110.917 94.9976 90.9026 94.9976 66.2967C94.9976 41.6909 74.9916 21.6848 50.3857 21.6848ZM50.3857 103.775C29.7263 103.775 12.9163 86.9649 12.9163 66.3056C12.9163 45.6462 29.7263 28.8273 50.3857 28.8273C71.0451 28.8273 87.8551 45.6373 87.8551 66.2967C87.8551 86.9561 71.0451 103.766 50.3857 103.766" fill="url(#paint3_linear_152_45)"/>
<path d="M50.3856 58.033C45.83 58.033 42.113 61.7411 42.113 66.3055C42.113 70.87 45.8211 74.5693 50.3856 74.5693C54.9501 74.5693 58.6582 70.8612 58.6582 66.3055C58.6582 61.7499 54.9501 58.033 50.3856 58.033Z" fill="url(#paint4_linear_152_45)"/>
<path d="M71.8574 69.9343C66.3306 69.9343 61.8279 65.4404 61.8279 59.9048C61.8279 54.3691 66.3306 49.8752 71.8574 49.8752C77.3842 49.8752 81.8869 54.3691 81.8869 59.9048C81.8869 65.4404 77.3842 69.9343 71.8574 69.9343ZM71.8574 51.641C67.3017 51.641 63.5848 55.3491 63.5848 59.9136C63.5848 64.4781 67.2929 68.1773 71.8574 68.1773C76.4219 68.1773 80.13 64.4692 80.13 59.9136C80.13 55.3579 76.4219 51.641 71.8574 51.641Z" fill="#F2F7FF"/>
<path d="M71.8574 79.0898C61.2893 79.0898 52.6813 70.4906 52.6813 59.9137C52.6813 49.3368 61.2805 40.7375 71.8574 40.7375C82.4343 40.7375 91.0336 49.3368 91.0336 59.9137C91.0336 70.4906 82.4343 79.0898 71.8574 79.0898ZM71.8574 42.4945C62.2517 42.4945 54.4382 50.308 54.4382 59.9137C54.4382 69.5194 62.2517 77.3241 71.8574 77.3241C81.4632 77.3241 89.2678 69.5106 89.2678 59.9137C89.2678 50.3168 81.4543 42.4945 71.8574 42.4945Z" fill="#F2F7FF"/>
<path d="M71.8573 88.2364C56.2392 88.2364 43.5345 75.5317 43.5345 59.9136C43.5345 44.2955 56.2392 31.5908 71.8573 31.5908C87.4755 31.5908 100.18 44.2955 100.18 59.9136C100.18 75.5317 87.4755 88.2364 71.8573 88.2364ZM71.8573 33.3478C57.2104 33.3478 45.2915 45.2666 45.2915 59.9136C45.2915 74.5606 57.2104 86.4795 71.8573 86.4795C86.5043 86.4795 98.4232 74.5606 98.4232 59.9136C98.4232 45.2666 86.5043 33.3478 71.8573 33.3478Z" fill="#F2F7FF"/>
<path d="M71.8574 106.282C46.2892 106.282 25.4797 85.4818 25.4797 59.9047C25.4797 34.3277 46.2804 13.5359 71.8574 13.5359C97.4344 13.5359 118.235 34.3365 118.235 59.9136C118.235 85.4906 97.4344 106.291 71.8574 106.291M71.8574 15.2928C47.2516 15.2928 27.2455 35.3077 27.2455 59.9047C27.2455 84.5018 47.2604 104.525 71.8574 104.525C96.4544 104.525 116.469 84.5106 116.469 59.9047C116.469 35.2989 96.4544 15.2928 71.8574 15.2928Z" fill="#F2F7FF"/>
<path d="M71.8572 97.3829C51.1978 97.3829 34.3878 80.5729 34.3878 59.9135C34.3878 39.2541 51.189 22.4441 71.8572 22.4441C92.5255 22.4441 109.327 39.2541 109.327 59.9135C109.327 80.5729 92.5166 97.3829 71.8572 97.3829ZM71.8572 24.201C52.169 24.201 36.1447 40.2165 36.1447 59.9135C36.1447 79.6106 52.1602 95.626 71.8572 95.626C91.5543 95.626 107.57 79.6106 107.57 59.9135C107.57 40.2165 91.5455 24.201 71.8572 24.201Z" fill="#F2F7FF"/>
</g>
<defs>
<linearGradient id="paint0_linear_152_45" x1="117.72" y1="-144.85" x2="-34.3492" y2="54.5513" gradientUnits="userSpaceOnUse">
<stop stop-color="#FFCCBD"/>
<stop offset="0.3125" stop-color="#D8B0FF"/>
<stop offset="0.600448" stop-color="#A7CAFF"/>
<stop offset="1" stop-color="#E1FFA3"/>
</linearGradient>
<linearGradient id="paint1_linear_152_45" x1="100.475" y1="-90.7478" x2="-12.6234" y2="57.5768" gradientUnits="userSpaceOnUse">
<stop stop-color="#FFCCBD"/>
<stop offset="0.3125" stop-color="#D8B0FF"/>
<stop offset="0.600448" stop-color="#A7CAFF"/>
<stop offset="1" stop-color="#E1FFA3"/>
</linearGradient>
<linearGradient id="paint2_linear_152_45" x1="83.2164" y1="-36.6665" x2="9.06129" y2="60.5695" gradientUnits="userSpaceOnUse">
<stop stop-color="#FFCCBD"/>
<stop offset="0.3125" stop-color="#D8B0FF"/>
<stop offset="0.600448" stop-color="#A7CAFF"/>
<stop offset="1" stop-color="#E1FFA3"/>
</linearGradient>
<linearGradient id="paint3_linear_152_45" x1="134.5" y1="-197.5" x2="-55.4887" y2="51.5983" gradientUnits="userSpaceOnUse">
<stop stop-color="#FFCCBD"/>
<stop offset="0.3125" stop-color="#D8B0FF"/>
<stop offset="0.600448" stop-color="#A7CAFF"/>
<stop offset="1" stop-color="#E1FFA3"/>
</linearGradient>
<linearGradient id="paint4_linear_152_45" x1="65.9833" y1="17.4143" x2="30.7811" y2="63.5979" gradientUnits="userSpaceOnUse">
<stop stop-color="#FFCCBD"/>
<stop offset="0.3125" stop-color="#D8B0FF"/>
<stop offset="0.600448" stop-color="#A7CAFF"/>
<stop offset="1" stop-color="#E1FFA3"/>
</linearGradient>
<clipPath id="clip0_152_45">
<rect width="112.452" height="97.3816" fill="white" transform="translate(5.7738 13.5359)"/>
</clipPath>
</defs>
</svg>
