<svg width="20" height="20" viewBox="0 0 20 20" fill="none" xmlns="http://www.w3.org/2000/svg">
<rect y="0.000976562" width="20" height="20" rx="10" fill="#1A1A1A"/>
<path d="M5.82033 8.07697H7.69357V14.165H5.82033V8.07697ZM6.75695 5.06641C7.35906 5.06641 7.82737 5.53472 7.82737 6.13683C7.82737 6.73894 7.35906 7.20725 6.75695 7.20725C6.15483 7.27415 5.68652 6.73894 5.68652 6.13683C5.68652 5.53472 6.15483 5.06641 6.75695 5.06641Z" fill="white"/>
<path d="M8.89746 8.07677H10.7038V8.87958C11.0383 8.41127 11.6404 7.94296 12.577 7.94296C14.5172 7.94296 14.8517 9.21409 14.8517 10.8197V14.1648H12.9784V11.2211C12.9784 10.4852 12.9784 9.6155 11.9749 9.6155C10.9714 9.6155 10.8376 10.3514 10.8376 11.1542V14.1648H8.89746V8.07677Z" fill="white"/>
</svg>
