<svg width="20" height="20" viewBox="0 0 20 20" fill="none" xmlns="http://www.w3.org/2000/svg">
<rect y="0.000976562" width="20" height="20" rx="10" fill="#1A1A1A"/>
<path d="M10.4386 10.001C10.4386 12.1988 8.79517 13.9834 6.75932 13.9834C4.72347 13.9834 3.08008 12.1988 3.08008 10.001C3.08008 7.8032 4.72347 6.01859 6.75932 6.01859C8.79517 6.01859 10.4386 7.8032 10.4386 10.001ZM14.4694 10.001C14.4694 12.0669 13.6436 13.7461 12.6298 13.7461C11.6159 13.7461 10.7901 12.0669 10.7901 10.001C10.7901 7.93507 11.6159 6.25595 12.6298 6.25595C13.6436 6.25595 14.4694 7.92628 14.4694 10.001ZM16.121 10.001C16.121 11.8559 15.8348 13.3592 15.475 13.3592C15.1153 13.3592 14.8291 11.8559 14.8291 10.001C14.8291 8.14606 15.1153 6.64276 15.475 6.64276C15.8348 6.64276 16.121 8.14606 16.121 10.001Z" fill="white"/>
</svg>
