<svg width="21" height="20" viewBox="0 0 21 20" fill="none" xmlns="http://www.w3.org/2000/svg">
<rect x="0.230469" y="0.000976562" width="20" height="20" rx="10" fill="#1A1A1A"/>
<path d="M14.3817 7.90377C14.388 7.99498 14.388 8.08622 14.388 8.17744C14.388 10.9597 12.3553 14.1656 8.64024 14.1656C7.49569 14.1656 6.43246 13.8202 5.53809 13.2208C5.7007 13.2403 5.85705 13.2468 6.02592 13.2468C6.97031 13.2468 7.83968 12.9145 8.53391 12.3476C7.64579 12.3281 6.90153 11.7221 6.64509 10.8881C6.77019 10.9076 6.89527 10.9206 7.02662 10.9206C7.20799 10.9206 7.38938 10.8946 7.55824 10.849C6.6326 10.6535 5.93835 9.80642 5.93835 8.78342V8.75736C6.20727 8.91375 6.52002 9.01148 6.85147 9.0245C6.30734 8.64657 5.95086 8.0015 5.95086 7.27171C5.95086 6.88077 6.05091 6.52239 6.22604 6.20962C7.22049 7.48674 8.71528 8.32077 10.3914 8.41201C10.3602 8.25562 10.3414 8.09274 10.3414 7.92984C10.3414 6.76999 11.242 5.8252 12.3615 5.8252C12.9432 5.8252 13.4686 6.07932 13.8376 6.48982C14.2941 6.3986 14.7319 6.22266 15.1197 5.98158C14.9696 6.47028 14.6506 6.88079 14.2316 7.1414C14.6381 7.09582 15.0322 6.9785 15.3949 6.81562C15.1197 7.23262 14.7757 7.60402 14.3817 7.90377Z" fill="white"/>
</svg>
